<?xml version="1.0" encoding="utf-8"?>
<!-- Generator: Adobe Illustrator 25.4.1, SVG Export Plug-In . SVG Version: 6.00 Build 0)  -->
<svg version="1.1" id="Laag_1" xmlns="http://www.w3.org/2000/svg" xmlns:xlink="http://www.w3.org/1999/xlink" x="0px" y="0px"
	 viewBox="0 0 500 500" style="enable-background:new 0 0 500 500;" xml:space="preserve">
<style type="text/css">
	.st0{fill:none;}
	.st1{fill:#FFCD00;}
	.st2{fill:#FFFFFF;}
	.st3{fill:#C00A35;}
</style>
<g>
	<path d="M500,250.0129C500,111.9236,388.0918,0,250.0072,0C111.9529,0,0,111.9236,0,250.0129C0,388.106,111.9529,500,250.0072,500
		C388.0918,500,500,388.106,500,250.0129"/>
	<path class="st0" d="M0,250.0205C0,388.0991,111.9673,500,250.0072,500C388.1062,500,500,388.0991,500,250.0205
		C500,111.9236,388.1062,0,250.0072,0C111.9673,0,0,111.9236,0,250.0205"/>
	<path class="st1" d="M496.0801,205.6742l-149.2164,12.8544l128.2812-77.3279c-1.5366-3.1748-3.1429-6.3091-4.8081-9.4073
		l-137.9552,58.3393l98.0728-113.1562c-2.439-2.5434-4.9306-5.0356-7.4744-7.4743L309.8225,167.61l58.3771-137.9556
		c-3.0944-1.6632-6.2245-3.268-9.3954-4.8029L281.4944,153.114L294.3389,3.918c-3.4559-0.6183-6.9417-1.1494-10.4453-1.6241
		l-33.8865,145.8567L216.1024,2.2983c-3.5055,0.4755-6.9929,1.0079-10.4508,1.6273l12.854,149.2074L141.2318,24.8523
		c-3.1745,1.5368-6.3085,3.1433-9.4064,4.8086L190.126,167.61L77.0326,69.5196c-2.5444,2.4391-5.0369,4.9316-7.4764,7.4753
		l98.0175,113.1379L29.6755,131.7986c-1.6631,3.0928-3.2673,6.2218-4.8021,9.391l128.3296,77.339L3.9226,205.6725
		c-0.6184,3.455-1.1501,6.9397-1.6252,10.4424l145.8681,33.8981L2.2941,283.8975c0.4745,3.5015,1.0055,6.985,1.6235,10.4388
		l149.2558-12.846L24.864,358.8164c1.535,3.1697,3.1398,6.2991,4.8031,9.3925l137.9067-58.3296L69.5539,423.017
		c2.4408,2.5447,4.9344,5.0377,7.48,7.4774l113.0921-98.0741l-58.2988,137.9253c3.0978,1.6648,6.2314,3.2712,9.4057,4.8075
		l77.2728-128.2671l-12.8518,149.1896c3.4594,0.6195,6.9482,1.152,10.4551,1.6275l33.8983-145.8273l33.88,145.8316
		c3.5053-0.4747,6.9925-1.0062,10.45-1.6246L281.4944,346.886l77.3118,128.2662c3.1697-1.5341,6.2985-3.1381,9.3917-4.8002
		l-58.3754-137.9317l113.1562,98.0916c2.545-2.4393,5.0378-4.9325,7.4778-7.4767l-98.075-113.1558l137.9636,58.3347
		c1.6648-3.0971,3.2711-6.2304,4.8072-9.4042l-128.2886-77.3196l149.2214,12.8452c0.6174-3.4535,1.1479-6.9371,1.6223-10.4383
		l-145.8661-33.8843l145.8629-33.8978C497.2295,212.6129,496.6981,209.1288,496.0801,205.6742z"/>
	<path d="M285.2367,210.7314v58.4196c0,6.0625-18.2252,15.3914-35.2295,20.1327c-17.0119-4.7413-35.2515-14.0703-35.2515-20.1327
		v-58.4196H285.2367 M292.6258,203.3228h-85.2517v65.8282c0,16.7481,42.633,27.8118,42.633,27.8118s42.6186-11.0637,42.6186-27.8118
		V203.3228z"/>
	<path class="st2" d="M285.2367,210.7314v58.4158c0,6.0663-18.2252,15.3952-35.2295,20.1365
		c-17.0119-4.7413-35.2363-14.0703-35.2363-20.1365v-58.4158H285.2367"/>
	<path class="st3" d="M280.0001,275.8347l-65.2292-65.1032v58.4196c0,6.0625,18.2245,15.3914,35.2363,20.1403
		C261.4938,286.0847,273.3804,280.8139,280.0001,275.8347"/>
</g>
</svg>
